<svg xmlns="http://www.w3.org/2000/svg" width="104" height="89" viewBox="0 0 104 89" fill="none"><path d="M3.13906 54.7522C3.45456 50.7741 20.3728 32.2349 27.0512 28.8037C32.33 33.7361 40.0855 44.3514 43.2084 54.7522L4.29545 60.9864C2.67972 60.9864 2.81592 58.8268 3.13906 54.7522Z" stroke="#F2F2F2" stroke-width="5.87365"></path><mask id="path-2-outside-1_11814_7" maskUnits="userSpaceOnUse" x="19.877" y="-0.797852" width="84" height="90" fill="black">
<rect fill="white" x="19.877" y="-0.797852" width="84" height="90"></rect>
<path d="M40.9874 5.0652C31.6874 9.22628 26.6704 19.7494 22.877 33.5776L31.6874 56.4597C22.877 70.8992 24.7123 85.4613 24.7123 85.4613C65.5833 88.6425 98.6225 85.4613 101.315 56.4597C87.9765 50.7085 81.2463 35.2003 81.2463 24.2771C83.9384 19.3824 87.7318 13.1417 92.1371 7.14565C93.5294 5.25047 92.2526 3.6993 90.0568 3.47366C76.9635 2.12818 50.2873 0.904127 40.9874 5.0652Z"></path>
</mask><path d="M40.9874 5.0652C31.6874 9.22628 26.6704 19.7494 22.877 33.5776L31.6874 56.4597C22.877 70.8992 24.7123 85.4613 24.7123 85.4613C65.5833 88.6425 98.6225 85.4613 101.315 56.4597C87.9765 50.7085 81.2463 35.2003 81.2463 24.2771C83.9384 19.3824 87.7318 13.1417 92.1371 7.14565C93.5294 5.25047 92.2526 3.6993 90.0568 3.47366C76.9635 2.12818 50.2873 0.904127 40.9874 5.0652Z" fill="#20252D"></path><path d="M22.877 33.5776L20.7528 32.9949C20.6284 33.4485 20.6524 33.9301 20.8214 34.369L22.877 33.5776ZM40.9874 5.0652L41.8869 7.07575V7.07575L40.9874 5.0652ZM90.0568 3.47366L89.8316 5.66474V5.66474L90.0568 3.47366ZM81.2463 24.2771L79.3164 23.2156C79.1375 23.5408 79.0437 23.906 79.0437 24.2771H81.2463ZM101.315 56.4597L103.508 56.6633C103.596 55.7135 103.063 54.8148 102.187 54.4371L101.315 56.4597ZM24.7123 85.4613L22.527 85.7367C22.6577 86.7738 23.4993 87.5761 24.5414 87.6573L24.7123 85.4613ZM31.6874 56.4597L33.5677 57.607C33.924 57.023 33.9887 56.3067 33.7429 55.6683L31.6874 56.4597ZM92.1371 7.14565L93.9121 8.44976L93.9121 8.44976L92.1371 7.14565ZM22.877 33.5776L25.0011 34.1603C28.7966 20.3246 33.6066 10.7806 41.8869 7.07575L40.9874 5.0652L40.0878 3.05466C29.7682 7.67195 24.5442 19.1742 20.7528 32.9949L22.877 33.5776ZM40.9874 5.0652L41.8869 7.07575C43.8915 6.17885 47.0254 5.5038 50.9817 5.0608C54.8901 4.62317 59.4215 4.42981 64.1102 4.40706C73.4872 4.36157 83.3499 4.99867 89.8316 5.66474L90.0568 3.47366L90.282 1.28258C83.6704 0.603172 73.6483 -0.0444982 64.0889 0.00188088C59.3095 0.0250688 54.6097 0.221803 50.4915 0.682923C46.4213 1.13867 42.7332 1.87102 40.0878 3.05466L40.9874 5.0652ZM81.2463 24.2771H79.0437C79.0437 30.1467 80.8388 37.1233 84.3585 43.3869C87.8846 49.6619 93.2291 55.372 100.442 58.4823L101.315 56.4597L102.187 54.4371C96.0621 51.7962 91.3725 46.8765 88.1989 41.2289C85.0189 35.5698 83.4489 29.3307 83.4489 24.2771H81.2463ZM101.315 56.4597L99.1214 56.2562C98.4893 63.0663 96.1001 68.2239 92.3611 72.1558C88.5934 76.1178 83.3202 78.9753 76.7102 80.9156C63.4232 84.8157 45.2989 84.8544 24.8832 83.2653L24.7123 85.4613L24.5414 87.6573C44.9967 89.2494 63.8275 89.2881 77.9509 85.1425C85.046 83.0599 91.0919 79.8831 95.5534 75.1914C100.044 70.4696 102.794 64.3539 103.508 56.6633L101.315 56.4597ZM31.6874 56.4597L33.7429 55.6683L24.9325 32.7861L22.877 33.5776L20.8214 34.369L29.6319 57.2512L31.6874 56.4597ZM90.0568 3.47366L89.8316 5.66474C90.154 5.69786 90.3762 5.77366 90.5058 5.83956C90.6371 5.90628 90.6313 5.93943 90.5896 5.87449C90.5677 5.84052 90.544 5.79086 90.5291 5.72936C90.5141 5.66739 90.5134 5.61563 90.5166 5.58366C90.523 5.5207 90.5343 5.607 90.362 5.84153L92.1371 7.14565L93.9121 8.44976C94.9956 6.97505 95.3346 5.10959 94.2954 3.49266C93.3834 2.07378 91.7632 1.43479 90.282 1.28258L90.0568 3.47366ZM92.1371 7.14565L90.362 5.84153C85.8879 11.9313 82.0438 18.2566 79.3164 23.2156L81.2463 24.2771L83.1763 25.3386C85.833 20.5082 89.5757 14.352 93.9121 8.44976L92.1371 7.14565ZM31.6874 56.4597L29.8072 55.3125C25.1954 62.8708 23.3776 70.4464 22.7085 76.1172C22.3736 78.956 22.3248 81.3309 22.3611 83.008C22.3792 83.8471 22.4187 84.5132 22.4546 84.9772C22.4725 85.2093 22.4896 85.391 22.5027 85.5188C22.5092 85.5827 22.5148 85.6331 22.519 85.6695C22.5211 85.6878 22.5228 85.7025 22.5242 85.7137C22.5248 85.7193 22.5254 85.7241 22.5259 85.7279C22.5261 85.7298 22.5263 85.7315 22.5265 85.733C22.5266 85.7337 22.5267 85.7346 22.5268 85.735C22.5269 85.7359 22.527 85.7367 24.7123 85.4613C26.8976 85.1859 26.8977 85.1866 26.8978 85.1872C26.8978 85.1874 26.8979 85.188 26.8979 85.1883C26.898 85.1889 26.8981 85.1892 26.8981 85.1894C26.8981 85.1897 26.898 85.1891 26.8979 85.1876C26.8975 85.1847 26.8968 85.1784 26.8956 85.1686C26.8934 85.1491 26.8897 85.116 26.885 85.0697C26.8755 84.9771 26.8617 84.8318 26.8467 84.6375C26.8166 84.2488 26.7816 83.6644 26.7653 82.9127C26.7328 81.4082 26.7758 79.2401 27.0834 76.6334C27.6993 71.4133 29.369 64.4882 33.5677 57.607L31.6874 56.4597Z" fill="#F2F2F2" mask="url(#path-2-outside-1_11814_7)"></path><path d="M67.0547 35.52C67.0547 40.7892 65.8686 49.6071 61.3223 49.6071C56.7759 49.6071 55.7969 42.5097 55.7969 35.52C55.7969 29.2829 57.2092 21.2178 61.3227 21.2178C65.4362 21.2178 67.0547 29.0678 67.0547 35.52Z" fill="#F2F2F2"></path><path d="M3.13906 54.7522C3.45456 50.7741 20.3728 32.2349 27.0512 28.8037C32.33 33.7361 40.0855 44.3514 43.2084 54.7522L4.29545 60.9864C2.67972 60.9864 2.81592 58.8268 3.13906 54.7522Z" fill="#F2F2F2" stroke="#20252D" stroke-width="2.44735"></path></svg>